<svg xmlns="http://www.w3.org/2000/svg" viewBox="0 0 800 400" font-family="Inter, -apple-system, BlinkMacSystemFont, sans-serif">
  <rect width="800" height="400" fill="#fff"/>
  <text x="40" y="36" font-family="Merriweather, Georgia, serif" font-size="18" font-weight="700" fill="#1a1a1a">AI coding tools: productivity gains mask quality costs</text>
  <text x="40" y="56" font-size="12" fill="#666">Independent research findings · % change from baseline</text>

  <!-- Zero axis -->
  <line x1="340" y1="75" x2="340" y2="330" stroke="#ccc" stroke-width="1.5"/>
  <text x="340" y="346" font-size="11" fill="#999" text-anchor="middle">0</text>

  <!-- Grid -->
  <line x1="190" y1="75" x2="190" y2="330" stroke="#eee" stroke-width="1"/>
  <text x="190" y="346" font-size="11" fill="#999" text-anchor="middle">−30%</text>
  <line x1="490" y1="75" x2="490" y2="330" stroke="#eee" stroke-width="1"/>
  <text x="490" y="346" font-size="11" fill="#999" text-anchor="middle">+30%</text>
  <line x1="640" y1="75" x2="640" y2="330" stroke="#eee" stroke-width="1"/>
  <text x="640" y="346" font-size="11" fill="#999" text-anchor="middle">+60%</text>

  <!-- Bar 1: DORA throughput +25% positive -->
  <text x="332" y="108" font-size="13" fill="#1a1a1a" text-anchor="end">Code throughput (DORA)</text>
  <rect x="340" y="90" width="125" height="28" fill="#E3120B" rx="2"/>
  <text x="473" y="109" font-size="13" font-weight="700" fill="#E3120B">+25%</text>

  <!-- Bar 2: METR task completion −19% (experienced devs slower) -->
  <text x="332" y="163" font-size="13" fill="#1a1a1a" text-anchor="end">Task completion time (METR, experienced devs)</text>
  <rect x="245" y="145" width="95" height="28" fill="#555" rx="2"/>
  <text x="237" y="164" font-size="13" font-weight="700" fill="#555" text-anchor="end">−19%</text>

  <!-- Bar 3: GitClear churn +41% negative outcome -->
  <text x="332" y="218" font-size="13" fill="#1a1a1a" text-anchor="end">Code churn increase (GitClear)</text>
  <rect x="340" y="200" width="246" height="28" fill="#555" rx="2"/>
  <text x="594" y="219" font-size="13" font-weight="700" fill="#555">+41%</text>

  <!-- Bar 4: DORA failed deployments +24% -->
  <text x="332" y="273" font-size="13" fill="#1a1a1a" text-anchor="end">Failed deployments (DORA)</text>
  <rect x="340" y="255" width="120" height="28" fill="#555" rx="2"/>
  <text x="468" y="274" font-size="13" font-weight="700" fill="#555">+24%</text>

  <!-- Legend -->
  <rect x="40" y="345" width="12" height="12" fill="#E3120B" rx="1"/>
  <text x="58" y="356" font-size="11" fill="#666">Positive outcome</text>
  <rect x="180" y="345" width="12" height="12" fill="#555" rx="1"/>
  <text x="198" y="356" font-size="11" fill="#666">Negative outcome / quality cost</text>

  <text x="40" y="388" font-size="10" fill="#999">Sources: DORA State of AI-Assisted Software Development, 2025; METR Task Complexity Study, 2025; GitClear AI Code Generation Impact Report, 2025</text>
</svg>
