<svg xmlns="http://www.w3.org/2000/svg" viewBox="0 0 800 400" font-family="Inter, -apple-system, BlinkMacSystemFont, sans-serif">
  <rect width="800" height="400" fill="#fff"/>
  <text x="40" y="36" font-family="Merriweather, Georgia, serif" font-size="18" font-weight="700" fill="#1a1a1a">Platform engineering: adoption surge and productivity proof</text>
  <text x="40" y="56" font-size="12" fill="#666">Internal developer portal adoption and impact · industry data</text>

  <!-- Adoption growth 15% → 80% -->
  <text x="40" y="90" font-size="13" font-weight="600" fill="#1a1a1a">Platform engineering teams at large software orgs (Gartner)</text>
  <text x="200" y="150" font-family="Merriweather, Georgia, serif" font-size="48" font-weight="700" fill="#888" text-anchor="middle">15%</text>
  <text x="200" y="170" font-size="12" fill="#999" text-anchor="middle">2022</text>
  <line x1="260" y1="148" x2="360" y2="120" stroke="#ddd" stroke-width="2" stroke-dasharray="4,3"/>
  <text x="312" y="122" font-size="20" fill="#E3120B">↗</text>
  <text x="460" y="140" font-family="Merriweather, Georgia, serif" font-size="48" font-weight="700" fill="#E3120B" text-anchor="middle">80%</text>
  <text x="460" y="160" font-size="12" fill="#999" text-anchor="middle">2027 (projected)</text>

  <line x1="40" y1="190" x2="760" y2="190" stroke="#ddd" stroke-width="1"/>

  <!-- Developer time on infra 60% -->
  <text x="36" y="226" font-size="13" fill="#1a1a1a" text-anchor="end">Developers spending 30%+ time on infrastructure (CNCF, n=2,000)</text>
  <rect x="40" y="212" width="432" height="26" fill="#555" rx="2"/>
  <text x="480" y="230" font-size="13" font-weight="700" fill="#555">60%</text>

  <!-- Spotify onboarding improvement -->
  <text x="36" y="268" font-size="13" fill="#1a1a1a" text-anchor="end">New-developer onboarding: Spotify Backstage</text>
  <rect x="40" y="254" width="432" height="26" fill="#888" rx="2"/>
  <text x="52" y="272" font-size="13" fill="#fff">60 days</text>
  <rect x="40" y="254" width="144" height="26" fill="#E3120B" rx="2"/>
  <text x="52" y="272" font-size="13" fill="#fff">20 days  ↓67%</text>

  <!-- Zalando time to first deploy -->
  <text x="36" y="310" font-size="13" fill="#1a1a1a" text-anchor="end">Time-to-first-deployment: Zalando golden paths</text>
  <rect x="40" y="296" width="432" height="26" fill="#888" rx="2"/>
  <text x="52" y="314" font-size="13" fill="#fff">2 weeks</text>
  <rect x="40" y="296" width="30" height="26" fill="#E3120B" rx="2"/>
  <text x="480" y="314" font-size="12" fill="#555">→ 4 hours  ↓97%</text>

  <text x="40" y="388" font-size="10" fill="#999">Sources: Gartner, 2024; CNCF Annual Survey, 2024 (n=2,000); Spotify Engineering Blog, 2025; Zalando Tech Blog, 2024</text>
</svg>
