<svg xmlns="http://www.w3.org/2000/svg" viewBox="0 0 800 400" font-family="Inter, -apple-system, BlinkMacSystemFont, sans-serif">
  <rect width="800" height="400" fill="#fff"/>
  <text x="40" y="36" font-family="Merriweather, Georgia, serif" font-size="18" font-weight="700" fill="#1a1a1a">DNS security: impact vs. the encryption blind spot</text>
  <text x="40" y="56" font-size="12" fill="#666">Enterprise outcomes · % of organisations</text>

  <!-- Axis -->
  <line x1="40" y1="310" x2="760" y2="310" stroke="#ddd" stroke-width="1"/>

  <!-- Grid -->
  <line x1="232" y1="80" x2="232" y2="310" stroke="#eee" stroke-width="1"/>
  <text x="232" y="326" font-size="11" fill="#999" text-anchor="middle">25%</text>
  <line x1="424" y1="80" x2="424" y2="310" stroke="#eee" stroke-width="1"/>
  <text x="424" y="326" font-size="11" fill="#999" text-anchor="middle">50%</text>
  <line x1="616" y1="80" x2="616" y2="310" stroke="#eee" stroke-width="1"/>
  <text x="616" y="326" font-size="11" fill="#999" text-anchor="middle">75%</text>
  <text x="40" y="326" font-size="11" fill="#999" text-anchor="middle">0</text>
  <text x="760" y="326" font-size="11" fill="#999" text-anchor="middle">100%</text>

  <!-- Bar 1: Phishing reduction 85% (positive) -->
  <text x="36" y="108" font-size="13" fill="#1a1a1a" text-anchor="end">Phishing incidents reduced (vs email-only)</text>
  <rect x="40" y="90" width="612" height="28" fill="#E3120B" rx="2"/>
  <text x="660" y="109" font-size="13" font-weight="700" fill="#E3120B">85%</text>

  <!-- Bar 2: Adapted for encrypted DNS 15% (problem) -->
  <text x="36" y="163" font-size="13" fill="#1a1a1a" text-anchor="end">Adapted architecture for encrypted DNS</text>
  <rect x="40" y="145" width="108" height="28" fill="#E3120B" rx="2"/>
  <text x="156" y="164" font-size="13" font-weight="700" fill="#E3120B">15%</text>

  <!-- Bar 3: Blind spot 85% -->
  <text x="36" y="218" font-size="13" fill="#1a1a1a" text-anchor="end">Facing encrypted DNS blind spot</text>
  <rect x="40" y="200" width="612" height="28" fill="#555" rx="2"/>
  <text x="660" y="219" font-size="13" font-weight="700" fill="#555">85%</text>

  <!-- Bar 4: DNS CAGR 25% -->
  <text x="36" y="273" font-size="13" fill="#1a1a1a" text-anchor="end">DNS security market CAGR through 2027</text>
  <rect x="40" y="255" width="180" height="28" fill="#888" rx="2"/>
  <text x="228" y="274" font-size="13" font-weight="700" fill="#888">25%</text>

  <text x="40" y="388" font-size="10" fill="#999">Sources: Forrester Research, 2023; Gartner Market Guide for DNS Security, 2023; Cisco Cybersecurity Readiness Index, 2023 (n=6,700)</text>
</svg>
